<svg xmlns="http://www.w3.org/2000/svg" viewBox="0 0 96 96">
  <defs>
    <radialGradient id="badge" cx="50%" cy="45%" r="60%"><stop offset="0" stop-color="#164566"/><stop offset="1" stop-color="#07131c"/></radialGradient>
    <linearGradient id="hot" x1="0" y1="0" x2="0" y2="1"><stop offset="0" stop-color="#ff6b6b"/><stop offset="1" stop-color="#d71920"/></linearGradient>
  </defs>
  <circle cx="48" cy="48" r="44" fill="url(#badge)" stroke="#56d8ff" stroke-width="4"/>
  <path d="M48 20v34" stroke="#eff5f7" stroke-width="10" stroke-linecap="round"/>
  <path d="M48 20v34" stroke="#071116" stroke-width="4" stroke-linecap="round"/>
  <circle cx="48" cy="62" r="14" fill="url(#hot)" stroke="#071116" stroke-width="4"/>
  <path d="M62 26h10M62 38h8M62 50h10" stroke="#ff6b6b" stroke-width="5" stroke-linecap="round"/>
  <path d="M20 73c7-6 14 6 21 0s14 6 21 0 10 3 14 1" fill="none" stroke="#32a9ff" stroke-width="5" stroke-linecap="round"/>
  <path d="M20 83c7-6 14 6 21 0s14 6 21 0 10 3 14 1" fill="none" stroke="#32a9ff" stroke-width="5" stroke-linecap="round"/>
</svg>
